<svg xmlns="http://www.w3.org/2000/svg" viewBox="0 0 1920 1080"><defs><linearGradient id="sky" x1="0" y1="0" x2="0" y2="1"><stop stop-color="#233241"/><stop offset=".55" stop-color="#6c746e"/><stop offset="1" stop-color="#d79d5d"/></linearGradient><radialGradient id="lamp"><stop stop-color="#ffd681" stop-opacity=".8"/><stop offset="1" stop-color="#ffd681" stop-opacity="0"/></radialGradient></defs><rect width="1920" height="1080" fill="url(#sky)"/><path d="M0 500 250 350 430 470 650 260 850 470 1100 330 1320 500 1540 290 1920 500V1080H0Z" fill="#4a554d"/><g fill="#3d2a1b"><path d="M0 690h360V390l180 100v200h300V420l170 90v180h360V400l170 95v195h380v390H0Z"/><rect x="95" y="610" width="260" height="250"/><rect x="560" y="590" width="310" height="270"/><rect x="1120" y="600" width="300" height="260"/><rect x="1560" y="585" width="270" height="275"/></g><g fill="#9a4b3f"><path d="M80 620h310l-45 90H125Z"/><path d="M540 600h350l-55 95H595Z"/></g><g fill="#4c6e55"><path d="M1100 610h340l-45 88h-250Z"/><path d="M1540 595h310l-40 90h-230Z"/></g><g fill="#ffd386"><circle cx="215" cy="545" r="16"/><circle cx="695" cy="525" r="16"/><circle cx="1260" cy="540" r="16"/><circle cx="1700" cy="520" r="16"/></g><g fill="url(#lamp)"><circle cx="215" cy="545" r="110"/><circle cx="695" cy="525" r="110"/><circle cx="1260" cy="540" r="110"/><circle cx="1700" cy="520" r="110"/></g><path d="M0 900q380-70 740 15t620-10q260-70 560 10v165H0Z" fill="#1a1814"/><g stroke="#d7b56f" stroke-width="5" opacity=".35"><path d="M320 420q140 85 280 0t290 0 300 0 300 0" fill="none"/><path d="M420 450v35M590 430v45M800 440v40M1010 425v50M1230 438v42M1450 420v45"/></g></svg>