<svg xmlns="http://www.w3.org/2000/svg" viewBox="0 0 1920 1080"><defs><linearGradient id="sky" x1="0" y1="0" x2="0" y2="1"><stop stop-color="#26333f"/><stop offset=".5" stop-color="#70858b"/><stop offset="1" stop-color="#c9b278"/></linearGradient><linearGradient id="sea" x1="0" y1="0" x2="1" y2="1"><stop stop-color="#315a67"/><stop offset="1" stop-color="#17313d"/></linearGradient><filter id="mist"><feGaussianBlur stdDeviation="24"/></filter></defs><rect width="1920" height="1080" fill="url(#sky)"/><path d="M0 480 240 250 400 420 600 120 810 430 1010 300 1180 440 1400 180 1600 400 1770 270 1920 410V1080H0Z" fill="#596b69"/><path d="M0 620 250 430 430 580 690 310 880 650 1110 430 1320 610 1540 390 1920 610V1080H0Z" fill="#263f37"/><path d="M0 760q180-100 360-30t380-10q240-80 430 10t420 0q160-70 330-10v360H0Z" fill="#183227"/><path d="M1120 1080q-70-280 100-420t300-20q140 110 400 40v400Z" fill="url(#sea)"/><path d="M900 1080q110-220 270-330t390-60" fill="none" stroke="#9fc1b5" stroke-opacity=".55" stroke-width="26"/><g fill="#d6d0bd" opacity=".2" filter="url(#mist)"><ellipse cx="950" cy="520" rx="760" ry="80"/><ellipse cx="1100" cy="720" rx="900" ry="100"/></g><g fill="#212b25"><g transform="translate(330 550)"><rect x="0" y="90" width="170" height="130"/><rect x="22" y="30" width="38" height="190"/><rect x="105" y="0" width="42" height="220"/><path d="M12 30h58L41-22Z"/><path d="M93 0h66L126-55Z"/></g><g transform="translate(1370 520)"><rect x="0" y="85" width="155" height="125"/><rect x="25" y="25" width="36" height="185"/><rect x="96" y="5" width="42" height="205"/><path d="M14 25h58L43-24Z"/><path d="M84 5h66L117-52Z"/></g></g><g fill="#83a06e" opacity=".8"><circle cx="220" cy="765" r="75"/><circle cx="300" cy="730" r="65"/><circle cx="420" cy="790" r="80"/><circle cx="760" cy="760" r="85"/><circle cx="850" cy="800" r="70"/></g><g fill="#c18e59" opacity=".58"><path d="M1540 720q170-80 380 30v330h-380Z"/></g></svg>